# xmcd
#
# Track frame offsets: 
#        150
#        13601
#        28897
#        43179
#        61385
#        76514
#        91101
#        108017
#        118850
#        138030
#        158115
#        172669
#
# Disc length: 2484 seconds
#
# Revision: 1
# Processed by: cddbd v1.5.2PL0 Copyright (c) Steve Scherf et al.
# Submitted via: ExactAudioCopy v0.99pb5
#
DISCID=8309b20c
DTITLE=Jack Johnson - From Here To Now To You
DYEAR=2013
DGENRE=Folk/Rock
TTITLE0=I Got You
TTITLE1=Washing Dishes
TTITLE2=Shot Reverse Shot
TTITLE3=Never Fade
TTITLE4=Tape Deck
TTITLE5=Don't Believe A Thing I Say
TTITLE6=As I Was Saying
TTITLE7=You Remind Me Of You
TTITLE8=Radiate
TTITLE9=Ones And Zeros
TTITLE10=Cange (Feat. Ben Harper)
TTITLE11=Home
EXTD=
EXTT0=
EXTT1=
EXTT2=
EXTT3=
EXTT4=
EXTT5=
EXTT6=
EXTT7=
EXTT8=
EXTT9=
EXTT10=
EXTT11=
PLAYORDER=
